HIERARCHY
ROOT Hips
{
	OFFSET -335.845001 -574.368103 89.378365
	CHANNELS 6 Xposition Yposition Zposition Zrotation Yrotation Xrotation
	JOINT Spine
	{
		OFFSET 0.000000 2.080078 8.814247
		CHANNELS 6 Xposition Yposition Zposition Zrotation Yrotation Xrotation
		JOINT Spine1
		{
			OFFSET 0.000000 0.000000 8.844139
			CHANNELS 6 Xposition Yposition Zposition Zrotation Yrotation Xrotation
			JOINT Spine2
			{
				OFFSET 0.000000 0.000000 11.682266
				CHANNELS 6 Xposition Yposition Zposition Zrotation Yrotation Xrotation
				JOINT Spine3
				{
					OFFSET 0.000000 0.000000 11.746696
					CHANNELS 6 Xposition Yposition Zposition Zrotation Yrotation Xrotation
					JOINT Neck
					{
						OFFSET 0.000000 0.000000 17.658264
						CHANNELS 6 Xposition Yposition Zposition Zrotation Yrotation Xrotation
						JOINT Neck1
						{
							OFFSET 0.000000 0.000000 5.101517
							CHANNELS 6 Xposition Yposition Zposition Zrotation Yrotation Xrotation
							JOINT Head
							{
								OFFSET 0.000000 0.000000 5.101517
								CHANNELS 6 Xposition Yposition Zposition Zrotation Yrotation Xrotation
								JOINT HeadEnd
								{
									OFFSET 0.000000 0.000000 11.655090
									CHANNELS 6 Xposition Yposition Zposition Zrotation Yrotation Xrotation
									End Site
									{
										OFFSET 0.000000 0.000000 0.100006
									}
								}
							}
						}
					}
					JOINT RightShoulder
					{
						OFFSET -2.625397 0.000000 11.175217
						CHANNELS 6 Xposition Yposition Zposition Zrotation Yrotation Xrotation
						JOINT RightArm
						{
							OFFSET 0.000000 0.000000 10.434708
							CHANNELS 6 Xposition Yposition Zposition Zrotation Yrotation Xrotation
							JOINT RightForeArm
							{
								OFFSET 0.000000 0.000000 29.628418
								CHANNELS 6 Xposition Yposition Zposition Zrotation Yrotation Xrotation
								JOINT RightHand
								{
									OFFSET 0.000000 0.000000 22.857605
									CHANNELS 6 Xposition Yposition Zposition Zrotation Yrotation Xrotation
									JOINT RightHandThumb1
									{
										OFFSET -2.867310 -2.944275 3.959564
										CHANNELS 6 Xposition Yposition Zposition Zrotation Yrotation Xrotation
										JOINT RightHandThumb2
										{
											OFFSET 0.000000 0.000000 3.350403
											CHANNELS 6 Xposition Yposition Zposition Zrotation Yrotation Xrotation
											JOINT RightHandThumb3
											{
												OFFSET 0.000000 0.000000 3.756516
												CHANNELS 6 Xposition Yposition Zposition Zrotation Yrotation Xrotation
												JOINT RightHandThumb4
												{
													OFFSET 0.000000 0.000000 3.147339
													CHANNELS 6 Xposition Yposition Zposition Zrotation Yrotation Xrotation
													End Site
													{
														OFFSET 0.000000 0.000000 0.100006
													}
												}
											}
										}
									}
									JOINT RightHandIndex1
									{
										OFFSET -0.086761 -2.345276 10.030899
										CHANNELS 6 Xposition Yposition Zposition Zrotation Yrotation Xrotation
										JOINT RightHandIndex2
										{
											OFFSET 0.000000 0.000000 4.061096
											CHANNELS 6 Xposition Yposition Zposition Zrotation Yrotation Xrotation
											JOINT RightHandIndex3
											{
												OFFSET 0.000000 0.000000 3.248871
												CHANNELS 6 Xposition Yposition Zposition Zrotation Yrotation Xrotation
												JOINT RightHandIndex4
												{
													OFFSET 0.000000 0.000000 2.639709
													CHANNELS 6 Xposition Yposition Zposition Zrotation Yrotation Xrotation
													End Site
													{
														OFFSET 0.000000 0.000000 0.100006
													}
												}
											}
										}
									}
									JOINT RightHandMiddle1
									{
										OFFSET 0.104095 -0.006775 9.502945
										CHANNELS 6 Xposition Yposition Zposition Zrotation Yrotation Xrotation
										JOINT RightHandMiddle2
										{
											OFFSET 0.000000 0.000000 4.568726
											CHANNELS 6 Xposition Yposition Zposition Zrotation Yrotation Xrotation
											JOINT RightHandMiddle3
											{
												OFFSET 0.000000 0.000000 3.654984
												CHANNELS 6 Xposition Yposition Zposition Zrotation Yrotation Xrotation
												JOINT RightHandMiddle4
												{
													OFFSET 0.000000 0.000000 2.741241
													CHANNELS 6 Xposition Yposition Zposition Zrotation Yrotation Xrotation
													End Site
													{
														OFFSET 0.000000 0.000000 0.100006
													}
												}
											}
										}
									}
									JOINT RightHandRing1
									{
										OFFSET 0.086761 2.267456 8.921707
										CHANNELS 6 Xposition Yposition Zposition Zrotation Yrotation Xrotation
										JOINT RightHandRing2
										{
											OFFSET 0.000000 0.000000 4.061096
											CHANNELS 6 Xposition Yposition Zposition Zrotation Yrotation Xrotation
											JOINT RightHandRing3
											{
												OFFSET 0.000000 0.000000 3.654984
												CHANNELS 6 Xposition Yposition Zposition Zrotation Yrotation Xrotation
												JOINT RightHandRing4
												{
													OFFSET 0.000000 0.000000 2.741241
													CHANNELS 6 Xposition Yposition Zposition Zrotation Yrotation Xrotation
													End Site
													{
														OFFSET 0.000000 0.000000 0.100006
													}
												}
											}
										}
									}
									JOINT RightHandPinky1
									{
										OFFSET -0.173492 4.467224 7.976990
										CHANNELS 6 Xposition Yposition Zposition Zrotation Yrotation Xrotation
										JOINT RightHandPinky2
										{
											OFFSET 0.000000 0.000000 3.350403
											CHANNELS 6 Xposition Yposition Zposition Zrotation Yrotation Xrotation
											JOINT RightHandPinky3
											{
												OFFSET 0.000000 0.000000 2.842758
												CHANNELS 6 Xposition Yposition Zposition Zrotation Yrotation Xrotation
												JOINT RightHandPinky4
												{
													OFFSET 0.000000 0.000000 2.639709
													CHANNELS 6 Xposition Yposition Zposition Zrotation Yrotation Xrotation
													End Site
													{
														OFFSET 0.000000 0.000000 0.100006
													}
												}
											}
										}
									}
									JOINT RightForeArmEnd
									{
										OFFSET 0.000000 0.000000 0.000000
										CHANNELS 6 Xposition Yposition Zposition Zrotation Yrotation Xrotation
										End Site
										{
											OFFSET 0.000000 0.000000 0.100006
										}
									}
								}
								JOINT RightArmEnd
								{
									OFFSET 0.000000 0.000000 0.000000
									CHANNELS 6 Xposition Yposition Zposition Zrotation Yrotation Xrotation
									End Site
									{
										OFFSET 0.000000 0.000000 0.100006
									}
								}
							}
						}
					}
					JOINT LeftShoulder
					{
						OFFSET 2.625397 0.000000 11.175217
						CHANNELS 6 Xposition Yposition Zposition Zrotation Yrotation Xrotation
						JOINT LeftArm
						{
							OFFSET 0.000000 0.000000 10.813629
							CHANNELS 6 Xposition Yposition Zposition Zrotation Yrotation Xrotation
							JOINT LeftForeArm
							{
								OFFSET 0.000000 0.000000 28.724777
								CHANNELS 6 Xposition Yposition Zposition Zrotation Yrotation Xrotation
								JOINT LeftHand
								{
									OFFSET 0.644379 0.328857 25.716171
									CHANNELS 6 Xposition Yposition Zposition Zrotation Yrotation Xrotation
									JOINT LeftHandThumb1
									{
										OFFSET 2.867310 -2.944275 3.959564
										CHANNELS 6 Xposition Yposition Zposition Zrotation Yrotation Xrotation
										JOINT LeftHandThumb2
										{
											OFFSET 0.000000 0.000000 3.350403
											CHANNELS 6 Xposition Yposition Zposition Zrotation Yrotation Xrotation
											JOINT LeftHandThumb3
											{
												OFFSET 0.000000 0.000000 3.756516
												CHANNELS 6 Xposition Yposition Zposition Zrotation Yrotation Xrotation
												JOINT LeftHandThumb4
												{
													OFFSET 0.000000 0.000000 3.100006
													CHANNELS 6 Xposition Yposition Zposition Zrotation Yrotation Xrotation
													End Site
													{
														OFFSET 0.000000 0.000000 0.100006
													}
												}
											}
										}
									}
									JOINT LeftHandIndex1
									{
										OFFSET 0.086761 -2.345276 10.030899
										CHANNELS 6 Xposition Yposition Zposition Zrotation Yrotation Xrotation
										JOINT LeftHandIndex2
										{
											OFFSET 0.000000 0.000000 4.061096
											CHANNELS 6 Xposition Yposition Zposition Zrotation Yrotation Xrotation
											JOINT LeftHandIndex3
											{
												OFFSET 0.000000 0.000000 3.248871
												CHANNELS 6 Xposition Yposition Zposition Zrotation Yrotation Xrotation
												JOINT LeftHandIndex4
												{
													OFFSET 0.000000 0.000000 2.639709
													CHANNELS 6 Xposition Yposition Zposition Zrotation Yrotation Xrotation
													End Site
													{
														OFFSET 0.000000 0.000000 0.100006
													}
												}
											}
										}
									}
									JOINT LeftHandMiddle1
									{
										OFFSET -0.104095 -0.006775 9.502945
										CHANNELS 6 Xposition Yposition Zposition Zrotation Yrotation Xrotation
										JOINT LeftHandMiddle2
										{
											OFFSET 0.000000 0.000000 4.568726
											CHANNELS 6 Xposition Yposition Zposition Zrotation Yrotation Xrotation
											JOINT LeftHandMiddle3
											{
												OFFSET 0.000000 0.000000 3.654984
												CHANNELS 6 Xposition Yposition Zposition Zrotation Yrotation Xrotation
												JOINT LeftHandMiddle4
												{
													OFFSET 0.000000 0.000000 2.741241
													CHANNELS 6 Xposition Yposition Zposition Zrotation Yrotation Xrotation
													End Site
													{
														OFFSET 0.000000 0.000000 0.100006
													}
												}
											}
										}
									}
									JOINT LeftHandRing1
									{
										OFFSET -0.086761 2.267456 8.921707
										CHANNELS 6 Xposition Yposition Zposition Zrotation Yrotation Xrotation
										JOINT LeftHandRing2
										{
											OFFSET 0.000000 0.000000 4.061096
											CHANNELS 6 Xposition Yposition Zposition Zrotation Yrotation Xrotation
											JOINT LeftHandRing3
											{
												OFFSET 0.000000 0.000000 3.654984
												CHANNELS 6 Xposition Yposition Zposition Zrotation Yrotation Xrotation
												JOINT LeftHandRing4
												{
													OFFSET 0.000000 0.000000 2.741241
													CHANNELS 6 Xposition Yposition Zposition Zrotation Yrotation Xrotation
													End Site
													{
														OFFSET 0.000000 0.000000 0.100006
													}
												}
											}
										}
									}
									JOINT LeftHandPinky1
									{
										OFFSET 0.173492 4.467224 7.976990
										CHANNELS 6 Xposition Yposition Zposition Zrotation Yrotation Xrotation
										JOINT LeftHandPinky2
										{
											OFFSET 0.000000 0.000000 3.350403
											CHANNELS 6 Xposition Yposition Zposition Zrotation Yrotation Xrotation
											JOINT LeftHandPinky3
											{
												OFFSET 0.000000 0.000000 2.842758
												CHANNELS 6 Xposition Yposition Zposition Zrotation Yrotation Xrotation
												JOINT LeftHandPinky4
												{
													OFFSET 0.000000 0.000000 2.639709
													CHANNELS 6 Xposition Yposition Zposition Zrotation Yrotation Xrotation
													End Site
													{
														OFFSET 0.000000 0.000000 0.100006
													}
												}
											}
										}
									}
									JOINT LeftForeArmEnd
									{
										OFFSET 0.000000 0.000000 0.000000
										CHANNELS 6 Xposition Yposition Zposition Zrotation Yrotation Xrotation
										End Site
										{
											OFFSET 0.000000 0.000000 0.100006
										}
									}
								}
								JOINT LeftArmEnd
								{
									OFFSET 0.000000 0.000000 0.000000
									CHANNELS 6 Xposition Yposition Zposition Zrotation Yrotation Xrotation
									End Site
									{
										OFFSET 0.000000 0.000000 0.100006
									}
								}
							}
						}
					}
				}
			}
		}
	}
	JOINT RightUpLeg
	{
		OFFSET -11.289948 0.000000 0.000000
		CHANNELS 6 Xposition Yposition Zposition Zrotation Yrotation Xrotation
		JOINT RightLeg
		{
			OFFSET 0.000000 0.000000 -38.200329
			CHANNELS 6 Xposition Yposition Zposition Zrotation Yrotation Xrotation
			JOINT RightFoot
			{
				OFFSET 0.000000 0.000000 -39.900856
				CHANNELS 6 Xposition Yposition Zposition Zrotation Yrotation Xrotation
				JOINT RightToeBase
				{
					OFFSET 0.000000 -15.261658 0.000002
					CHANNELS 6 Xposition Yposition Zposition Zrotation Yrotation Xrotation
					JOINT RightToeBaseEnd
					{
						OFFSET 0.000000 -7.370728 0.000000
						CHANNELS 6 Xposition Yposition Zposition Zrotation Yrotation Xrotation
						End Site
						{
							OFFSET 0.000000 0.000000 0.100000
						}
					}
				}
				JOINT RightLegEnd
				{
					OFFSET 0.000000 0.000000 0.000000
					CHANNELS 6 Xposition Yposition Zposition Zrotation Yrotation Xrotation
					End Site
					{
						OFFSET 0.000000 0.000000 0.100000
					}
				}
			}
			JOINT RightUpLegEnd
			{
				OFFSET 0.000000 0.000000 0.000000
				CHANNELS 6 Xposition Yposition Zposition Zrotation Yrotation Xrotation
				End Site
				{
					OFFSET 0.000000 0.000000 0.099998
				}
			}
		}
	}
	JOINT LeftUpLeg
	{
		OFFSET 11.315674 0.000000 0.000000
		CHANNELS 6 Xposition Yposition Zposition Zrotation Yrotation Xrotation
		JOINT LeftLeg
		{
			OFFSET 0.000000 0.000000 -38.200329
			CHANNELS 6 Xposition Yposition Zposition Zrotation Yrotation Xrotation
			JOINT LeftFoot
			{
				OFFSET 0.000000 0.000000 -39.900856
				CHANNELS 6 Xposition Yposition Zposition Zrotation Yrotation Xrotation
				JOINT LeftToeBase
				{
					OFFSET 0.000000 -15.261658 0.000002
					CHANNELS 6 Xposition Yposition Zposition Zrotation Yrotation Xrotation
					JOINT LeftToeBaseEnd
					{
						OFFSET 0.000000 -7.539978 0.000000
						CHANNELS 6 Xposition Yposition Zposition Zrotation Yrotation Xrotation
						End Site
						{
							OFFSET 0.000000 0.000000 0.100000
						}
					}
				}
				JOINT LeftLegEnd
				{
					OFFSET 0.000000 0.000000 0.000000
					CHANNELS 6 Xposition Yposition Zposition Zrotation Yrotation Xrotation
					End Site
					{
						OFFSET 0.000000 0.000000 0.100000
					}
				}
			}
			JOINT LeftUpLegEnd
			{
				OFFSET 0.000000 0.000000 0.000000
				CHANNELS 6 Xposition Yposition Zposition Zrotation Yrotation Xrotation
				End Site
				{
					OFFSET 0.000000 0.000000 0.099998
				}
			}
		}
	}
}
MOTION
Frames: 2
Frame Time: 0.016667
-20.736877 3.604492 88.919571 59.441852 3.648354 -9.303396 0.000007 2.080051 8.814241 -0.044654 -0.764245 7.956495 -0.000008 -0.000015 8.844137 -0.022867 0.495229 3.793495 -0.000042 0.000013 11.682285 -2.132349 -0.412583 4.838494 -0.000019 0.000013 11.746688 -0.585354 -0.817804 3.810182 0.000015 0.000002 17.658276 -20.493769 -27.417230 5.800002 0.000025 -0.000019 5.101528 -10.962655 -1.199832 -7.088836 0.000000 -0.000010 5.101522 -0.707345 -3.143437 -13.685061 -0.000003 0.000003 11.655075 -0.000000 0.000001 0.000001 -2.625376 -0.000026 11.175216 11.508223 -87.750391 0.512354 0.000000 0.000008 10.434700 -61.130063 -51.531035 54.197660 -0.000004 0.000000 29.628433 17.384061 2.420384 112.011257 0.000008 0.000000 22.857628 11.530660 47.415061 28.174447 -2.867343 -2.944305 3.959549 32.486862 -26.400040 38.690594 -0.000023 0.000000 3.350418 -32.871184 10.485742 -55.441783 -0.000046 -0.000015 3.756454 -21.866950 10.798261 -37.858871 -0.000001 -0.000068 3.147357 0.000001 -0.000001 0.000000 -0.086756 -2.345258 10.030898 -90.870134 -71.504957 88.812444 -0.000050 -0.000061 4.061111 -8.691374 -61.909012 15.266521 -0.000015 -0.000088 3.248856 -9.191339 -61.909005 15.266494 0.000007 -0.000006 2.639700 -0.000000 0.000000 0.000001 0.104083 -0.006828 9.502945 -89.371181 -76.501240 92.387181 -0.000021 -0.000022 4.568707 -3.090671 -62.871625 5.870995 -0.000010 -0.000022 3.654980 -3.590681 -62.871659 5.870991 -0.000027 -0.000005 2.741259 0.000002 -0.000001 0.000002 0.086773 2.267429 8.921707 27.418529 -101.849732 -16.996586 -0.000015 -0.000033 4.061066 5.513489 -69.445586 -9.387724 -0.000010 -0.000032 3.654987 6.513445 -69.445566 -9.387143 -0.000037 0.000014 2.741227 0.000000 -0.000000 -0.000002 -0.173470 4.467108 7.976963 -9.437904 -106.876512 25.294354 -0.000008 -0.000053 3.350380 19.122062 -68.970458 -30.371109 0.000000 -0.000088 2.842766 21.122025 -68.970444 -30.371061 -0.000061 -0.000062 2.639718 -0.000000 0.000001 -0.000000 -0.000003 0.000010 0.000034 -0.000002 -0.000001 -0.000001 -0.000001 -0.000004 -0.000019 0.000001 -0.000000 0.000000 2.625389 0.000011 11.175215 -11.174120 81.032586 -0.204121 -0.000031 0.000010 10.813618 76.111728 54.231996 62.391251 0.000040 0.000008 28.724771 -13.615367 1.160688 106.921181 0.644333 0.328791 25.716148 6.459659 -52.644284 11.653289 2.867265 -2.944336 3.959549 -32.323870 25.818646 39.469344 -0.000015 -0.000046 3.350506 31.627946 -10.688980 -53.443905 -0.000053 -0.000015 3.756535 20.999456 -10.680972 -36.468450 0.000002 -0.000006 3.100009 -0.000001 0.000000 -0.000002 0.086754 -2.345260 10.030910 6.856747 77.750967 -2.981458 -0.000023 -0.000019 4.061142 -5.472272 54.802320 -11.492884 -0.000008 0.000029 3.248917 -5.972307 54.802354 -11.492906 -0.000023 0.000005 2.639729 0.000001 -0.000003 0.000002 -0.104069 -0.006784 9.502926 33.247448 78.304690 27.406411 0.000034 -0.000047 4.568731 -1.917488 56.334953 -4.513057 0.000018 -0.000079 3.655037 -2.417466 56.334963 -4.513047 -0.000031 -0.000012 2.741244 0.000001 -0.000000 0.000001 -0.086720 2.267476 8.921743 -67.269918 105.681611 -64.226571 -0.000002 0.000021 4.061142 4.540247 67.137112 8.340425 0.000000 -0.000022 3.655022 5.540239 67.137099 8.340412 -0.000045 -0.000007 2.741245 0.000001 0.000002 -0.000002 0.173470 4.467197 7.977009 -60.622273 116.028084 -48.647367 0.000008 0.000004 3.350426 21.784508 70.460040 33.209302 0.000000 -0.000023 2.842815 23.784667 70.459924 33.209367 -0.000059 -0.000006 2.639711 0.000001 0.000000 -0.000000 -0.000005 -0.000051 0.000031 -0.000000 -0.000003 -0.000002 -0.000004 -0.000002 -0.000008 0.000001 0.000002 0.000001 -11.289956 -0.000001 -0.000004 -5.154975 4.731599 -4.990981 -0.000015 0.000052 -38.200283 -0.388570 0.255374 33.311478 -0.000034 -0.000031 -39.900879 -20.230006 -3.597472 28.284927 0.000012 -15.261724 0.000033 0.224355 1.104731 -24.040881 0.000007 -7.370673 0.000002 0.000001 0.000001 0.000001 0.000005 0.000010 0.000002 -0.000002 -0.000003 -0.000002 -0.000015 0.000003 -0.000010 -0.000000 0.000000 0.000000 11.315701 -0.000010 -0.000006 -17.048565 -1.896098 0.038988 0.000017 0.000066 -38.200336 0.623885 -0.246989 21.543581 0.000040 0.000028 -39.900860 -5.095142 -2.939738 14.465125 0.000009 -15.261695 0.000011 -0.639440 0.076334 -22.776548 -0.000035 -7.539986 0.000000 0.000001 -0.000000 0.000000 0.000008 0.000082 0.000001 -0.000004 -0.000001 0.000003 0.000026 0.000109 0.000014 0.000002 -0.000000 0.000001 
-20.937622 3.553406 88.819626 58.460839 4.021326 -9.562632 -0.000012 2.080063 8.814238 -0.131034 -0.795182 8.076366 0.000005 0.000022 8.844152 -0.078619 0.551521 3.924556 0.000005 -0.000042 11.682268 -2.939109 -0.720990 4.949950 -0.000004 0.000000 11.746687 -0.955891 -1.330585 4.005541 0.000023 -0.000008 17.658257 -19.786513 -24.717394 5.217615 0.000009 -0.000010 5.101516 -11.710969 -0.599459 -6.970922 0.000009 -0.000002 5.101534 -0.842927 -2.815251 -14.221918 0.000011 0.000007 11.655047 -0.000001 0.000000 -0.000000 -2.625394 0.000010 11.175224 11.194315 -88.806161 0.696337 -0.000023 -0.000007 10.434738 -56.056828 -49.563333 51.847805 -0.000011 0.000015 29.628433 15.606566 2.410489 110.958472 -0.000008 -0.000019 22.857582 9.989323 49.742823 29.344480 -2.867334 -2.944290 3.959564 32.544554 -26.594183 38.430896 -0.000008 -0.000031 3.350388 -33.283713 10.408536 -56.106381 0.000000 -0.000008 3.756554 -22.156811 10.832773 -38.322825 0.000021 -0.000062 3.147345 0.000000 0.000000 -0.000001 -0.086746 -2.345271 10.030858 -92.746982 -71.483681 90.473020 -0.000011 -0.000055 4.061066 -8.916276 -62.291277 15.521004 -0.000019 -0.000038 3.248848 -9.416260 -62.291216 15.520992 -0.000051 -0.000026 2.639711 0.000004 0.000002 -0.000004 0.104080 -0.006816 9.502897 -91.534958 -76.498727 94.263509 -0.000032 -0.000029 4.568665 -3.168576 -63.212608 5.958400 -0.000006 0.000016 3.654943 -3.668612 -63.212554 5.958415 -0.000009 -0.000013 2.741262 0.000001 0.000002 -0.000001 0.086784 2.267483 8.921734 26.655201 -102.128178 -16.730244 -0.000015 -0.000051 4.061062 5.630587 -69.691207 -9.512692 -0.000057 -0.000084 3.654938 6.630578 -69.691200 -9.512708 -0.000021 0.000003 2.741224 -0.000001 0.000001 0.000001 -0.173500 4.467106 7.976974 -9.520439 -107.093862 24.663548 -0.000015 -0.000114 3.350403 19.474326 -69.183533 -30.748234 -0.000008 -0.000072 2.842743 21.474337 -69.183519 -30.748251 -0.000016 -0.000062 2.639716 -0.000003 0.000000 -0.000004 0.000014 0.000004 0.000018 -0.000002 -0.000002 0.000003 0.000013 0.000005 -0.000002 -0.000001 0.000000 0.000000 2.625397 -0.000005 11.175207 -11.517314 80.779336 -0.205438 0.000000 0.000004 10.813625 77.170483 56.274485 62.565031 0.000038 -0.000015 28.724768 -14.241052 1.109030 106.332050 0.644379 0.328810 25.716171 7.012270 -52.336758 10.232337 2.867208 -2.944321 3.959549 -32.223436 25.431967 39.988415 0.000008 -0.000031 3.350513 30.795001 -10.800749 -52.109033 -0.000046 -0.000015 3.756508 20.423029 -10.591307 -35.542914 -0.000060 -0.000004 3.100008 0.000001 -0.000000 0.000003 0.086731 -2.345297 10.030960 5.817918 75.903626 -4.909277 -0.000027 -0.000025 4.061111 -5.076788 53.639661 -11.005410 -0.000034 -0.000011 3.248878 -5.576765 53.639668 -11.005391 -0.000025 0.000014 2.639725 -0.000001 -0.000000 0.000001 -0.104141 -0.006786 9.502968 29.191187 76.922130 22.565316 0.000010 -0.000047 4.568768 -1.766388 55.236177 -4.330345 -0.000030 -0.000076 3.655003 -2.266365 55.236184 -4.330321 -0.000038 0.000018 2.741271 -0.000003 0.000003 -0.000003 -0.086788 2.267466 8.921743 -69.873634 105.413725 -67.283360 0.000017 0.000020 4.061121 4.339559 66.592070 8.122204 -0.000023 -0.000022 3.654999 5.339561 66.592131 8.122188 -0.000044 0.000001 2.741252 -0.000000 0.000001 -0.000000 0.173477 4.467218 7.976986 -60.851856 115.997772 -49.416668 0.000023 -0.000023 3.350449 21.533968 70.330956 32.943348 0.000031 -0.000015 2.842827 23.533912 70.330950 32.943276 -0.000018 0.000002 2.639712 -0.000000 0.000000 -0.000000 -0.000027 -0.000015 0.000023 0.000000 0.000000 0.000001 0.000004 0.000005 0.000006 -0.000001 0.000002 0.000002 -11.289941 0.000035 -0.000015 -5.742932 4.715574 -5.001822 -0.000004 0.000053 -38.200356 -0.577778 0.381925 33.464700 -0.000015 -0.000049 -39.900902 -17.285737 -4.252081 27.427513 -0.000002 -15.261730 0.000035 0.375182 1.416518 -23.301242 0.000002 -7.370656 0.000000 -0.000002 0.000000 0.000001 -0.000004 0.000001 0.000001 -0.000000 -0.000001 -0.000001 0.000003 0.000054 -0.000004 0.000001 -0.000000 0.000001 11.315690 0.000002 0.000006 -16.945319 -2.294404 -0.162273 0.000019 -0.000009 -38.200329 0.618698 -0.260144 22.804151 0.000025 -0.000017 -39.900848 -4.274786 -2.730426 13.713644 -0.000013 -15.261695 0.000012 -0.643884 0.047540 -22.851487 -0.000031 -7.539996 -0.000000 0.000003 -0.000000 0.000000 0.000001 0.000079 0.000000 -0.000003 -0.000001 0.000003 0.000037 0.000046 -0.000002 0.000002 0.000001 -0.000000 
